<svg width="22" height="22" viewBox="0 0 22 22" fill="none" xmlns="http://www.w3.org/2000/svg">
<path fill-rule="evenodd" clip-rule="evenodd" d="M11.1415 3.23087C10.127 3.23087 9.3046 4.05077 9.3046 5.06217V6.05951H7.7764V5.06217C7.7764 3.20934 9.283 1.70732 11.1415 1.70732C13 1.70732 14.5066 3.20934 14.5066 5.06217V6.05951H12.9784V5.06217C12.9784 4.05077 12.156 3.23087 11.1415 3.23087ZM15.6621 7.58309H6.22001C5.68202 7.58309 5.23675 8.00012 5.2032 8.53543L4.80146 14.9436C4.67316 16.9902 6.30349 18.7203 8.36032 18.7203H13.5218C15.5786 18.7203 17.2089 16.9902 17.0806 14.9436L16.6789 8.53543C16.6453 8.00012 16.2001 7.58309 15.6621 7.58309ZM6.22001 6.05953C4.87503 6.05953 3.76187 7.10212 3.67797 8.44039L3.27624 14.8486C3.09295 17.7723 5.42199 20.2439 8.36032 20.2439H13.5218C16.4601 20.2439 18.7891 17.7723 18.6059 14.8486L18.2041 8.44039C18.1202 7.10212 17.0071 6.05953 15.6621 6.05953H6.22001ZM12.9781 9.45043C12.9781 10.4618 12.1557 11.2817 11.1412 11.2817C10.1267 11.2817 9.30433 10.4618 9.30433 9.45043L9.30433 9.25096C9.30433 8.83024 8.96223 8.48919 8.54023 8.48919C8.11823 8.48919 7.77613 8.83024 7.77613 9.25096V9.45043C7.77613 11.3033 9.28273 12.8053 11.1412 12.8053C12.9997 12.8053 14.5063 11.3033 14.5063 9.45043V9.25096C14.5063 8.83024 14.1642 8.48918 13.7422 8.48918C13.3202 8.48918 12.9781 8.83024 12.9781 9.25096V9.45043Z" fill="#333333"/>
</svg>
