<svg width="22" height="24" viewBox="0 0 22 24" fill="none" xmlns="http://www.w3.org/2000/svg">
<path fill-rule="evenodd" clip-rule="evenodd" d="M22 11.5C22 5.42487 17.0751 0.5 11 0.5C4.92487 0.5 0 5.42487 0 11.5C0 17.5751 4.92487 22.5 11 22.5C12.326 22.5 14.1475 22.0163 16.4645 21.0489L20.2113 22.5104L20.3223 22.5465C20.8067 22.6735 21.3199 22.42 21.5063 21.9422C21.5808 21.7511 21.5948 21.5418 21.5464 21.3425L20.5016 17.046L20.6727 16.6367C21.5576 14.4813 22 12.7691 22 11.5ZM19.2714 16.1004L18.9265 16.9169L19.862 20.7641L16.4454 19.4313L15.5123 19.8183C13.5445 20.6124 12.0245 21 11 21C5.75329 21 1.5 16.7467 1.5 11.5C1.5 6.25329 5.75329 2 11 2C16.2467 2 20.5 6.25329 20.5 11.5C20.5 12.5455 20.097 14.0952 19.2714 16.1004Z" fill="#262626"/>
</svg>
