<svg width="24" height="21" viewBox="0 0 24 21" fill="none" xmlns="http://www.w3.org/2000/svg">
<path fill-rule="evenodd" clip-rule="evenodd" d="M11.8725 2.65511L11.2175 1.88951C8.58142 -0.746533 4.37761 -0.5669 1.74157 2.06914C-0.894471 4.70518 -0.387159 9.80151 2.24888 12.4375C3.31874 13.5074 4.92092 14.9887 7.05542 16.8815L8.85115 18.4612L10.8681 20.212C11.4234 20.6913 12.2439 20.6986 12.8077 20.2293L14.4416 18.8594C17.3029 16.4413 19.4262 14.5366 20.8115 13.1454L21.171 12.7788L21.4939 12.4375C23.9489 9.79014 24.5798 4.64387 22.005 2.06914L21.8185 1.88951C19.1711 -0.565474 15.179 -0.685229 12.6042 1.88951L11.8725 2.65511ZM2.80223 3.1298C4.88666 1.04537 8.11137 0.947647 10.118 2.91183L11.8111 4.89048L13.6886 2.92588C15.6145 1.00055 18.6838 1.02838 20.7986 2.98939L20.9645 3.14958C22.7839 4.96937 22.4744 9.17411 20.394 11.4176L20.0815 11.7477L19.7348 12.1012C18.5864 13.2537 16.8845 14.7978 14.6405 16.7208L13.4734 17.7138L11.8481 19.0764L9.83442 17.3285L8.39319 16.0625C6.36239 14.2676 4.79575 12.832 3.69885 11.7613L3.30954 11.3769C1.138 9.20535 0.866398 5.06563 2.80223 3.1298Z" fill="#262626"/>
</svg>
