<svg width="24" height="26" viewBox="0 0 24 26" fill="none" xmlns="http://www.w3.org/2000/svg">
<path fill-rule="evenodd" clip-rule="evenodd" d="M7.66995 0.646428L7.59733 0.730546C7.37948 1.02416 7.40369 1.44082 7.66995 1.70709L9.462 3.49976L6.5 3.5C2.91015 3.5 0 6.41015 0 10V18.5C0 22.0899 2.91015 25 6.5 25H15.5C19.0899 25 22 22.0899 22 18.5L22.0009 11.3747C21.529 11.5591 21.0254 11.6802 20.5006 11.7275L20.5 18.5C20.5 21.2614 18.2614 23.5 15.5 23.5H6.5C3.73858 23.5 1.5 21.2614 1.5 18.5V10C1.5 7.23858 3.73858 5 6.5 5L14.6427 4.99997C14.7669 4.4655 14.969 3.96093 15.2365 3.49888L12.538 3.49876L14.33 1.70709L14.4027 1.62297C14.6205 1.32936 14.5963 0.912694 14.33 0.646428C14.0372 0.353534 13.5623 0.353534 13.2694 0.646428L11 2.91582L8.73061 0.646428L8.64649 0.57381C8.35288 0.355955 7.93622 0.380161 7.66995 0.646428ZM10.7149 12.2704L5.03803 13.775L4.94141 13.8077C4.60028 13.9495 4.40794 14.3251 4.50522 14.6922C4.61134 15.0925 5.02195 15.3311 5.42234 15.225L10.157 13.97V15.8256L10.163 15.9216C10.2186 16.3606 10.6497 16.6652 11.0923 16.5524L16.9593 15.0568L17.0562 15.025C17.3987 14.8864 17.5946 14.5127 17.5008 14.1447C17.3985 13.7434 16.9901 13.5009 16.5888 13.6032L11.657 14.8604V12.9953L11.6509 12.8988C11.5948 12.4574 11.159 12.1527 10.7149 12.2704Z" fill="#262626"/>
<path fill-rule="evenodd" clip-rule="evenodd" d="M20 10.25C22.2091 10.25 24 8.45914 24 6.25C24 4.04086 22.2091 2.25 20 2.25C17.7909 2.25 16 4.04086 16 6.25C16 8.45914 17.7909 10.25 20 10.25Z" fill="#ED4956"/>
</svg>
