<svg width="21" height="21" viewBox="0 0 21 21" fill="none" xmlns="http://www.w3.org/2000/svg">
<path d="M6.6673 16.6878C7.8548 17.3128 8.9798 17.6253 10.0423 17.6253C11.1048 17.6253 12.2142 17.3128 13.3704 16.6878C14.5579 16.0628 15.4485 15.2971 16.0423 14.3909C16.011 13.5159 15.3079 12.7815 13.9329 12.1878C12.5579 11.594 11.261 11.2971 10.0423 11.2971C8.82355 11.2971 7.52667 11.594 6.15167 12.1878C4.77667 12.7503 4.07355 13.4846 4.0423 14.3909C4.63605 15.2971 5.51105 16.0628 6.6673 16.6878ZM12.1517 4.31276C11.5579 3.71901 10.8548 3.42213 10.0423 3.42213C9.2298 3.42213 8.52667 3.71901 7.93292 4.31276C7.33917 4.90651 7.0423 5.60963 7.0423 6.42213C7.0423 7.23463 7.33917 7.93776 7.93292 8.53151C8.52667 9.12526 9.2298 9.42213 10.0423 9.42213C10.8548 9.42213 11.5579 9.12526 12.1517 8.53151C12.7454 7.93776 13.0423 7.23463 13.0423 6.42213C13.0423 5.60963 12.7454 4.90651 12.1517 4.31276ZM2.96417 3.37526C4.93292 1.40651 7.2923 0.422134 10.0423 0.422134C12.7923 0.422134 15.136 1.40651 17.0735 3.37526C19.0423 5.31276 20.0267 7.65651 20.0267 10.4065C20.0267 13.1565 19.0423 15.5159 17.0735 17.4846C15.136 19.4221 12.7923 20.3909 10.0423 20.3909C7.2923 20.3909 4.93292 19.4221 2.96417 17.4846C1.02667 15.5159 0.0579224 13.1565 0.0579224 10.4065C0.0579224 7.65651 1.02667 5.31276 2.96417 3.37526Z" fill="#333333"/>
</svg>
