<svg width="22" height="22" viewBox="0 0 22 22" fill="none" xmlns="http://www.w3.org/2000/svg">
<path fill-rule="evenodd" clip-rule="evenodd" d="M19.6258 19.3153C19.7915 19.1512 19.792 18.8835 19.6268 18.7188L15.895 14.9984C17.1659 13.5845 17.9444 11.7259 17.9444 9.67859C17.9444 5.27761 14.3633 1.70732 9.94885 1.70732C5.53443 1.70732 1.95325 5.27761 1.95325 9.67859C1.95325 14.0796 5.53443 17.6499 9.94885 17.6499C12.0109 17.6499 13.8793 16.8653 15.2975 15.5899L19.0332 19.3142C19.1968 19.4774 19.4615 19.4779 19.6258 19.3153ZM2.79489 9.67859C2.79489 5.7475 6.00575 2.5464 9.94885 2.5464C13.8919 2.5464 17.1028 5.7475 17.1028 9.67859C17.1028 13.6097 13.8919 16.8108 9.94885 16.8108C6.00575 16.8108 2.79489 13.6097 2.79489 9.67859Z" fill="#333333" stroke="#333333" stroke-width="0.852466" stroke-linecap="round" stroke-linejoin="round"/>
</svg>
