<svg width="21" height="22" viewBox="0 0 21 22" fill="none" xmlns="http://www.w3.org/2000/svg">
<path fill-rule="evenodd" clip-rule="evenodd" d="M7.38911 3.2683L9.69646 6.15249L9.58061 6.21685H13.4139L11.055 3.2683H7.38911ZM18.0447 6.21685H15.2175L15.3334 6.15249L13.026 3.2683H15.2696C16.8023 3.2683 18.0447 4.51074 18.0447 6.04336V6.21685ZM7.77695 6.21685L5.43089 3.28426C4.03909 3.43359 2.95526 4.61191 2.95526 6.04336V6.21685H7.77695ZM2.95526 15.5827V7.77782H18.0447V15.5827C18.0447 17.1153 16.8023 18.3577 15.2696 18.3577H5.73033C4.1977 18.3577 2.95526 17.1153 2.95526 15.5827ZM5.73033 1.70732C3.3356 1.70732 1.39429 3.64863 1.39429 6.04336V15.5827C1.39429 17.9774 3.3356 19.9187 5.73033 19.9187H15.2696C17.6644 19.9187 19.6057 17.9774 19.6057 15.5827V6.04336C19.6057 3.64863 17.6644 1.70732 15.2696 1.70732H5.73033ZM13.3184 12.923C13.6074 12.7561 13.6074 12.3388 13.3184 12.1719L8.76553 9.54334C8.47646 9.37645 8.11512 9.58506 8.11512 9.91885L8.11512 15.176C8.11512 15.5098 8.47646 15.7184 8.76553 15.5515L13.3184 12.923Z" fill="#333333"/>
</svg>
